<svg width="22" height="22" viewBox="0 0 22 22" fill="none" xmlns="http://www.w3.org/2000/svg">
    <path d="M2.15816 18.4454C3.0605 18.9363 4.04083 19.0573 5.058 18.986C6.71054 18.8702 8.11955 18.2224 9.30513 17.0794C10.1998 16.2168 10.8199 15.1714 11.1868 13.994C11.506 12.9715 11.7361 11.9213 12.0327 10.8917C12.2624 10.0951 12.5346 9.31047 12.7896 8.52104C12.8064 8.46842 12.8384 8.42105 12.8638 8.37129C12.8906 8.45454 12.8911 8.52344 12.8901 8.59185C12.8844 9.02389 12.8557 9.45688 12.8772 9.88748C12.9389 11.1152 12.9346 12.3395 12.814 13.5648C12.7705 14.004 12.7872 14.4499 12.7939 14.8929C12.7973 15.125 12.9547 15.2513 13.1676 15.313C13.4451 15.3929 13.648 15.2475 13.8374 15.0815C14.2101 14.7542 14.5087 14.3609 14.7402 13.9284C15.2354 13.0041 15.7129 12.0697 16.1794 11.1305C16.6688 10.1454 17.2047 9.19374 17.9745 8.39378C18.0286 8.33732 18.0898 8.28756 18.1472 8.23494C18.0004 8.60716 17.8176 8.94734 17.6568 9.29756C17.4214 9.81045 17.1626 10.3171 16.9837 10.8501C16.6736 11.7745 16.4411 12.7218 16.3722 13.7007C16.3272 14.3384 16.3521 14.9709 16.5784 15.5771C16.8291 16.2489 17.2353 16.7723 18.0047 16.8431C18.3075 16.8708 18.6281 16.8306 18.9257 16.7594C19.5835 16.6015 20.0844 16.1833 20.5275 15.691C21.0303 15.1322 21.4088 14.5054 21.5246 13.7499C21.5566 13.5413 21.5585 13.3246 21.5418 13.1136C21.5169 12.8007 21.3102 12.6735 21.0093 12.7648C20.9217 12.7916 20.839 12.8347 20.7547 12.872C20.5461 12.9648 20.3615 12.9261 20.1974 12.7725C19.9787 12.5677 19.8897 12.2969 19.8548 12.0151C19.7462 11.1367 19.7955 10.2621 20.0093 9.40521C20.372 7.95265 20.9959 6.60392 21.703 5.2906C21.8088 5.09396 21.9135 4.89014 21.9724 4.67676C22.0867 4.26003 21.836 3.94139 21.404 3.9256C21.2724 3.92082 21.138 3.92656 21.0078 3.94665C20.3285 4.05191 19.7424 4.37295 19.1993 4.77149C17.619 5.93219 16.3339 7.35173 15.4297 9.10283C15.2775 9.39707 15.1058 9.68079 14.9216 10.0076C14.9077 9.93436 14.9 9.90805 14.8981 9.88174C14.8622 9.22579 14.8149 8.57032 14.7948 7.91438C14.7728 7.15653 14.8235 6.40441 15.0771 5.67957C15.1302 5.52743 15.1828 5.37385 15.2187 5.21692C15.3259 4.75139 15.0766 4.43801 14.6029 4.44232C14.4015 4.44423 14.1996 4.46002 13.9991 4.47725C13.3264 4.53562 12.6935 4.36098 12.0724 4.13851C11.3289 3.87249 10.5965 3.5749 9.84865 3.32181C9.07835 3.06153 8.28605 2.92422 7.46648 3.04335C6.45553 3.19024 5.58524 3.62083 4.81256 4.28778C3.59492 5.33892 3.30881 7.09289 4.15757 8.45741C4.8006 9.49133 5.80915 9.94728 6.99473 9.72337C7.8411 9.56357 8.60661 9.20761 9.3037 8.70668C9.46159 8.59329 9.60273 8.45263 9.73525 8.30957C9.90414 8.12824 10.0094 7.9096 10.0223 7.65746C10.0338 7.43211 9.93142 7.3235 9.70798 7.31633C9.58694 7.3125 9.46541 7.32063 9.34484 7.31585C9.1683 7.30867 9.05395 7.21059 9.00132 7.04744C8.91281 6.77186 9.02907 6.44652 9.27164 6.28337C9.51756 6.11783 9.7941 6.05132 10.0874 6.03075C10.6945 5.98865 11.2629 6.15993 11.8318 6.33265C11.861 6.34174 11.8854 6.3671 11.9155 6.38719C11.8954 6.42164 11.8839 6.44843 11.8667 6.47092C11.3428 7.1527 10.9562 7.91151 10.6098 8.69424C10.1501 9.73294 9.69554 10.7745 9.11902 11.7563C8.78794 12.3199 8.37648 12.7983 7.75211 13.0533C7.17176 13.2902 6.58327 13.1859 6.18521 12.8155C5.86944 12.5213 5.79767 11.8017 6.27707 11.5175C6.35553 11.4711 6.44213 11.4171 6.48998 11.3439C6.55505 11.2439 6.62538 11.1219 6.6249 11.0099C6.62394 10.7185 6.41056 10.5774 6.16655 10.4894C5.71825 10.3281 5.2532 10.3305 4.78337 10.3535C3.62363 10.4095 2.58493 10.7826 1.67541 11.5075C0.403706 12.5208 -0.150331 13.8404 0.0348268 15.4518C0.192713 16.8306 0.968269 17.798 2.15816 18.4454Z" fill="#242748"/>
</svg>
